<?xml version="1.0" encoding="UTF-8"?>
<svg id="Layer_1" data-name="Layer 1" xmlns="http://www.w3.org/2000/svg" viewBox="0 0 156 156">
  <defs>
    <style>
      .cls-1 {
        fill: #1d1d1f;
        stroke-width: 0px;
      }
    </style>
  </defs>
  <path class="cls-1" d="M42.48,65.7v24.31h-4.96v-24.31h4.96Z"/>
  <path class="cls-1" d="M62.71,73.62v16.45c0,5.11-3.97,8.24-8.84,8.24s-8.19-2.91-8.53-7.02l4.94.03c.2,1.75,1.74,2.51,3.76,2.51,1.91,0,3.69-1.02,3.69-3.69v-2.1c-1.27.82-2.88,1.31-4.69,1.31-4.53,0-8.15-3.66-8.15-7.88,0-4.9,3.64-8.19,8.15-8.19,1.82,0,3.42.48,4.69,1.31v-.89l4.97-.07ZM57.75,83.31v-4c-1.01-1.47-2.41-1.95-3.8-1.95-2.44,0-4.14,1.63-4.14,4.11,0,1.82,1.7,3.81,4.14,3.81,1.39-.01,2.79-.51,3.8-1.97Z"/>
  <path class="cls-1" d="M82.49,81.62c0,5.06-3.74,8.67-8.77,8.67s-8.81-3.61-8.81-8.67,3.74-8.7,8.81-8.7,8.77,3.68,8.77,8.7ZM77.7,81.62c0-2.38-1.56-4.31-3.99-4.31s-4.01,1.93-4.01,4.31,1.56,4.28,4.01,4.28c2.41-.01,3.99-1.83,3.99-4.28Z"/>
  <path class="cls-1" d="M113.26,73.65v16.34l-4.86.03v-.93c-1.27.82-2.88,1.33-4.69,1.33-4.53,0-8.15-3.84-8.15-8.57s3.64-8.59,8.15-8.59c1.82,0,3.42.51,4.69,1.33v-.93h4.86ZM108.4,84.36v-5.01c-1.02-1.45-2.45-1.86-3.88-1.86-2.49,0-4.22,1.99-4.22,4.38s1.72,4.35,4.22,4.35c1.43-.01,2.86-.4,3.88-1.86Z"/>
  <path class="cls-1" d="M133.25,81.14v8.88h-4.78v-8.3c0-2.67-1.33-4.08-3.7-4.08-1.24,0-2.6.71-3.77,2.09v10.29h-4.89v-16.34h4.89v1.24c1.33-1.06,2.88-1.64,4.73-1.64,4.36,0,7.53,3.07,7.53,7.87Z"/>
  <g id="lINT7W">
    <polygon class="cls-1" points="35.26 90 30.21 90 26.92 77.78 19.85 90 14.21 90 25.12 71.09 23.37 64.52 8.64 90.02 3 90.02 21.66 57.69 26.6 57.69 28.77 65.72 33.87 65.72 30.38 71.78 35.26 90"/>
  </g>
  <path class="cls-1" d="M153,65.7v24.31h-4.96v-.93c-1.27.82-2.88,1.33-4.69,1.33-4.53,0-8.15-3.84-8.15-8.59s3.64-8.57,8.15-8.57c1.82,0,3.42.51,4.69,1.33v-8.9h4.96ZM148.04,84.37v-5.05c-1.04-1.47-2.48-1.87-3.91-1.87-2.51,0-4.24,2.01-4.24,4.38s1.74,4.42,4.24,4.42c1.43,0,2.87-.4,3.91-1.87Z"/>
  <path class="cls-1" d="M94.68,77.8c-1.08.13-3.61.26-5.09,2.3v9.93h-4.89v-16.33h4.89v1.23c1.12-.96,2.8-1.52,5.09-1.29"/>
</svg>