<?xml version="1.0" encoding="UTF-8"?>
<svg id="Layer_1" data-name="Layer 1" xmlns="http://www.w3.org/2000/svg" viewBox="0 0 156 156">
  <defs>
    <style>
      .cls-1 {
        fill: #1d1d1f;
        stroke-width: 0px;
      }
    </style>
  </defs>
  <path class="cls-1" d="M24.76,92.66h4.82v-2.7c1.35,1.54,3.09,3.47,7.52,3.47,8.1,0,10.99-7.72,10.99-12.15s-4.44-11.96-11.19-11.96c-4.93,0-6.26,2.05-6.94,2.89v-9.64h-5.21v30.09ZM29.78,81.09c0-3.28,2.51-6.75,6.56-6.75s6.37,2.7,6.37,7.14-2.89,7.14-6.37,7.14-6.56-2.31-6.56-7.33v-.19ZM71.44,83.79c0-.77.39-1.74.39-2.7,0-5.79-4.24-11.77-11.38-11.77s-11.57,5.79-11.57,12.15,5.02,11.96,11.57,11.96,9.45-3.86,10.61-7.91h-5.59c-.96,1.93-2.7,2.89-5.02,2.89-3.86,0-5.79-3.09-6.17-4.63h17.17ZM54.27,79.35c.96-4.24,4.05-5.21,6.17-5.21s5.4,1.54,5.98,5.21h-12.15ZM95.75,70.09h-4.82v2.89h0c0-.39-2.89-3.66-7.33-3.66s-10.99,5.02-10.99,11.96c0,7.52,5.02,12.15,10.8,12.15s5.98-1.54,7.72-3.47v2.89h4.82v-22.57l-.19-.19ZM90.73,81.28c0,4.24-2.7,7.14-6.37,7.14s-6.56-3.09-6.56-6.94,2.31-7.14,6.56-7.14,6.37,2.31,6.37,7.14v-.19ZM98.25,92.66h5.21v-11.38c0-2.31,0-7.14,4.24-7.14s4.44,2.7,4.44,5.79v12.54h5.21v-11.38c0-1.35,0-3.66.77-5.02.77-1.35,2.12-2.12,3.66-2.12,4.24,0,4.24,4.63,4.24,5.79v12.54h5.21v-13.31c0-3.28-.77-5.59-1.74-6.75-.77-1.16-2.89-3.47-7.33-3.47s-4.82,0-7.14,3.47c-2.12-3.28-5.21-3.47-6.37-3.47-3.86,0-5.4,1.93-5.79,2.7h0v-1.93h-4.82v22.57h0l.19.58Z"/>
</svg>