<?xml version="1.0" encoding="UTF-8"?>
<svg id="Layer_1" data-name="Layer 1" xmlns="http://www.w3.org/2000/svg" viewBox="0 0 156 156">
  <defs>
    <style>
      .cls-1 {
        fill: #1d1d1f;
        fill-rule: evenodd;
        stroke-width: 0px;
      }
    </style>
  </defs>
  <path class="cls-1" d="M39.62,62.09H8v31.82h31.61v-11.11h-5.25c-1.81,4.05-5.88,6.87-10.54,6.87-6.42,0-11.62-5.28-11.62-11.7s5.2-11.65,11.62-11.65c4.75,0,8.82,2.91,10.63,7.06h5.16v-11.29ZM70.23,82.8c-1.85,4.05-5.88,6.87-10.58,6.87-6.24,0-11.35-5.01-11.58-11.24h27.41v-16.34h-31.62v31.82h31.62v-11.11h-5.25ZM70.64,74.52h-22.07c1.4-5.23,6.06-8.19,11.08-8.19s9.36,2.78,10.99,8.19ZM143.75,77.98c0,6.46-5.16,11.7-11.58,11.7s-11.58-5.28-11.58-11.7,5.16-11.65,11.58-11.65,11.58,5.19,11.58,11.65ZM148,62.09h-31.62v31.82h31.62v-31.82ZM107.19,82.8h5.25v11.11h-32.75v-31.82h5.34v15.89c0,7.1,5.25,11.65,11.49,11.65,4.84,0,9.09-2.64,10.67-6.83h0Z"/>
</svg>