<?xml version="1.0" encoding="UTF-8"?>
<svg id="Layer_1" data-name="Layer 1" xmlns="http://www.w3.org/2000/svg" viewBox="0 0 156 156">
  <defs>
    <style>
      .cls-1 {
        fill: #1d1d1f;
        stroke-width: 0px;
      }
    </style>
  </defs>
  <path class="cls-1" d="M153,72.48h-3.22v17.51h3.22v-17.51Z"/>
  <path class="cls-1" d="M116.47,89.99v-9.85c0-2.8-2.08-4.9-4.85-4.9-2.36,0-4.75,1.8-4.75,5.25v9.5h-3.22v-23.62h3.22s-.01,7.58,0,7.57c.43-.36,2.1-1.85,5.41-1.85,4.03,0,7.44,3.37,7.44,7.35v10.55h-3.25Z"/>
  <path class="cls-1" d="M153,66.35h-3.22v3.22h3.22v-3.22Z"/>
  <path class="cls-1" d="M126.2,86.75h-3.24v3.24h3.24v-3.24Z"/>
  <path class="cls-1" d="M26.92,76.88c.22.33.33.71.33,1.1,0,.52-.21,1.03-.58,1.4-.37.37-.87.58-1.4.58-.39,0-.77-.12-1.1-.33-.33-.22-.58-.53-.73-.89-.15-.36-.19-.76-.11-1.14.08-.38.26-.74.54-1.01.28-.28.63-.46,1.01-.54.38-.08.78-.04,1.14.11.36.15.67.4.89.73Z"/>
  <path class="cls-1" d="M26.92,86.89c.22.33.33.71.33,1.1,0,.52-.21,1.03-.58,1.4-.37.37-.87.58-1.4.58-.39,0-.77-.12-1.1-.33-.33-.22-.58-.53-.73-.89-.15-.36-.19-.76-.11-1.14.08-.38.26-.74.54-1.01.28-.28.63-.46,1.01-.54.38-.08.78-.04,1.14.11.36.15.67.4.89.73Z"/>
  <path class="cls-1" d="M27.25,65.72h-4.75v4.75h4.75v-4.75Z"/>
  <path class="cls-1" d="M17.05,86.89c.22.33.33.71.33,1.1,0,.52-.21,1.03-.58,1.4-.37.37-.87.58-1.4.58-.39,0-.77-.12-1.1-.33-.33-.22-.58-.53-.73-.89-.15-.36-.19-.76-.11-1.14.08-.38.26-.74.54-1.01.28-.28.63-.46,1.01-.54.38-.08.78-.04,1.14.11.36.15.67.4.89.73Z"/>
  <path class="cls-1" d="M17.78,75.61h-4.75v4.75h4.75v-4.75Z"/>
  <path class="cls-1" d="M17.91,65.72h-5.01v5.01h5.01v-5.01Z"/>
  <path class="cls-1" d="M8.29,65.73H3.02v5.28h5.28v-5.28Z"/>
  <path class="cls-1" d="M7.75,85.22H3v4.75h4.75v-4.75Z"/>
  <path class="cls-1" d="M8.01,75.48H3v5.01h5.01v-5.01Z"/>
  <path class="cls-1" d="M47.18,68.59c1.42.02,1.98,1.06,1.98,1.06l2.04-2.04h0s0,0,0,0c-1.18-1.28-2.63-1.99-4.1-1.99s-2.62.46-3.53,1.36c-.91.91-1.36,2.08-1.36,3.5v2h-2.75v2.77h2.75v14.75h3.22v-14.75h5.77v-2.77h-5.77v-2c0-1.15.62-1.82,1.75-1.89Z"/>
  <path class="cls-1" d="M94.23,87.22c-3.48,0-6-2.51-6-5.97s2.6-5.97,6.05-5.97c1.91,0,3.41,1.1,4.05,1.67l2.2-2.2c-.63-.62-2.99-2.66-6.41-2.66-5.15,0-9.19,4.02-9.19,9.16s4.04,9.12,9.19,9.12c3.29,0,5.51-1.8,6.39-2.67l-2.14-2.14c-.79.74-2.17,1.66-4.15,1.66Z"/>
  <path class="cls-1" d="M79.44,87.4c-1.07,0-1.89-.72-1.89-2.82v-9.33h5.77v-2.77h-5.77v-3.58h-3.22v15.68c0,3.96,1.83,5.76,5.07,5.76,1.2,0,2.69-.47,3.98-1.55l-2.03-2.03c-.51.41-1.19.64-1.91.64Z"/>
  <path class="cls-1" d="M61.99,87.15c-3.13,0-5.39-2.3-5.84-4.67h12.97s1.88,0,1.88,0c.05-.41.09-.82.09-1.24,0-5.05-4.1-9.15-9.15-9.15s-9.15,4.1-9.15,9.15,4.1,9.15,9.15,9.15c3.03,0,5.54-1.09,7.26-2.77l-2.01-2.26c-1.39,1.22-3.14,1.8-5.2,1.8ZM61.99,75.25c2.92,0,5.05,2.01,5.66,4.46h-11.44c.66-2.54,2.84-4.46,5.78-4.46Z"/>
  <path class="cls-1" d="M142.6,72.48v1.9s-2.11-2.29-5.82-2.29c-5.03,0-9.13,4.06-9.13,9.05s3.95,9.23,8.99,9.23c4.2,0,5.97-2.3,5.97-2.3v1.93s3.21,0,3.21,0v-17.51h-3.22ZM137.06,87.21c-.1,0-.21,0-.31,0-1.65,0-3.15-.67-4.23-1.76-1.09-1.08-1.77-2.58-1.77-4.24,0-3.31,2.7-5.99,6.03-5.99s6.03,2.68,6.03,5.99-2.54,5.84-5.74,5.99Z"/>
</svg>