<?xml version="1.0" encoding="UTF-8"?>
<svg id="Layer_1" data-name="Layer 1" xmlns="http://www.w3.org/2000/svg" viewBox="0 0 156 156">
  <defs>
    <style>
      .cls-1 {
        fill: #1d1d1f;
        stroke-width: 0px;
      }
    </style>
  </defs>
  <path class="cls-1" d="M70.44,64.4v27.06c-7.35,5.14-16.8,8.99-23.71,14.67v-4.54c6.39-4.18,13.14-8.05,19.82-12.26v-18.26c-5.51,3.48-11.19,6.23-16.44,9.71v6.16l-3.38,1.66v-10.54l23.71-13.66Z"/>
  <path class="cls-1" d="M43.93,78.06v27.71l-23.82-14.41v-27.06l3.84,2.29v22.65l16.47,10.08v-18.93l-5.48-3.14v-4.34l8.99,5.17Z"/>
  <path class="cls-1" d="M68.94,62.48l-3.82,2.29-3.92-2.16-15.82-8.57-15.97,8.57,15.97,9.14,1.19-.7,1.22-.65,2.73-1.56,4,2.03-1.74,1.01-6.31,3.66-1.19.68c-7.9-4.57-15.74-9.14-23.63-13.69,7.95-4.42,15.53-8.62,23.56-12.67,6.86,3.14,13.14,6.96,19.74,10.57,1.38.68,2.67,1.35,4,2.05Z"/>
  <path class="cls-1" d="M87.25,74.61h4.42c-.08.31-.21.6-.36.86-.13.23-.31.47-.47.68-.18.21-.36.42-.6.6-.96.75-2.16,1.14-3.38,1.12-1.06.03-2.13-.18-3.09-.65-.88-.57-1.58-1.35-2.05-2.29-.49-.83-.78-1.79-.78-2.78.03-.91.29-1.82.78-2.57.49-.88,1.22-1.58,2.13-2.03.83-.47,1.77-.7,2.73-.75.96-.03,1.9.16,2.78.55.91.39,1.71.96,2.42,1.64l.44.47,2.03-1.95-.47-.47c-.99-.96-2.1-1.71-3.35-2.29-.6-.21-1.19-.39-1.82-.47-.62-.13-1.25-.18-1.9-.18-1.53-.03-3.04.36-4.36,1.09-1.27.68-2.36,1.66-3.12,2.91s-1.14,2.67-1.14,4.13c0,1.92.68,3.79,1.95,5.25.81.96,1.84,1.74,2.99,2.29,1.22.49,2.52.73,3.84.7,1.04.08,2.1-.08,3.06-.44.99-.36,1.87-.93,2.62-1.69.75-.73,1.32-1.64,1.69-2.6.36-.99.52-2.03.47-3.06v-.65h-7.43v2.6h-.03Z"/>
  <path class="cls-1" d="M102.26,64.59l-7.4,15.63h2.86l2.29-4.75h5.4l2.29,4.75h2.91l-7.3-15.63h-1.04ZM104.31,72.84h-2.96l1.48-3.14,1.48,3.14Z"/>
  <path class="cls-1" d="M114.41,77.62v-13.04h-2.67v15.66h8.21v-2.62h-5.53Z"/>
  <path class="cls-1" d="M128.46,64.59h-1.09l-7.38,15.63h2.96l2.29-4.75h5.45l2.29,4.75h2.91l-7.43-15.63ZM129.4,72.84h-2.99l1.51-3.14,1.48,3.14Z"/>
  <path class="cls-1" d="M96.8,88.38v.26c.03.52-.05,1.04-.23,1.53-.18.49-.47.93-.83,1.32-.36.36-.81.68-1.3.86s-1.01.26-1.53.23c-.68.03-1.32-.1-1.95-.36-.57-.26-1.09-.62-1.51-1.09-.62-.78-.91-1.74-.86-2.73,0-.73.21-1.43.57-2.05.36-.62.88-1.14,1.53-1.51.65-.36,1.4-.57,2.16-.55.31-.03.65-.03.96,0,.31.08.62.16.91.29.62.26,1.19.65,1.69,1.14l.13.1-.86.81v-.1c-.36-.39-.83-.7-1.32-.88-.42-.21-.88-.31-1.38-.31-.57,0-1.12.13-1.61.42-.49.26-.88.65-1.17,1.12-.29.44-.42.93-.44,1.45,0,.55.16,1.06.44,1.53.29.47.7.88,1.19,1.14.52.29,1.09.42,1.66.42.57.03,1.14-.13,1.64-.47.13-.08.23-.21.34-.31.1-.13.18-.26.26-.39.13-.21.21-.42.26-.65h-2.44v-1.09l3.69-.13Z"/>
  <path class="cls-1" d="M101.32,84.56l3.66,7.82h-1.22l-1.19-2.47h-2.99l-1.17,2.47h-1.22l3.69-7.82h.44ZM102.13,88.84l-1.01-2.13-1.01,2.13h2.03Z"/>
  <path class="cls-1" d="M113.42,84.56l1.12,7.82h-1.06l-.68-4.93-2.47,4.93h-.39l-2.49-4.99-.62,4.99h-1.14l1.14-7.82h.36l2.93,5.92,2.91-5.92h.39Z"/>
  <path class="cls-1" d="M120.18,85.67h-3.53v1.97h3.51v1.09h-3.51v2.57h3.51v1.06h-4.57v-7.82h4.57l.03,1.12Z"/>
  <path class="cls-1" d="M125.09,89.08c.23.36.39.81.39,1.22,0,.29-.05.57-.18.83s-.29.49-.49.7-.47.39-.75.49-.57.18-.88.18c-.47,0-.93-.13-1.32-.42-.47-.34-.83-.78-1.06-1.27v-.13l.93-.57v.16c.16.34.39.65.68.88.21.16.44.23.7.26.21,0,.44-.05.65-.13.16-.1.31-.21.44-.36.1-.16.13-.36.13-.55,0-.23-.08-.47-.23-.65-.36-.44-.81-.81-1.27-1.09-.44-.31-.86-.65-1.22-1.04-.26-.36-.42-.81-.42-1.25,0-.34.08-.68.26-.99.08-.16.18-.29.29-.39l.44-.29c.31-.18.65-.26,1.01-.26s.75.08,1.06.29c.42.26.75.6,1.04,1.01v.16l-.86.65v-.13c-.18-.26-.42-.49-.65-.7-.18-.1-.36-.13-.57-.13-.1,0-.23,0-.34.05s-.21.1-.29.18c-.08.08-.16.16-.18.23-.05.1-.05.21-.05.31-.03.13-.03.29,0,.42.1.16.21.31.34.44.08.08.16.16.26.21l.7.52c.55.26,1.04.68,1.45,1.14Z"/>
</svg>