<?xml version="1.0" encoding="UTF-8"?>
<svg id="Layer_1" data-name="Layer 1" xmlns="http://www.w3.org/2000/svg" viewBox="0 0 156 156">
  <defs>
    <style>
      .cls-1 {
        fill: #1d1d1f;
        stroke-width: 0px;
      }
    </style>
  </defs>
  <path class="cls-1" d="M7.51,91.38c1.97,2.75,4.51,5.04,7.43,6.74,2.92,1.7,6.17,2.76,9.54,3.11-1.73-2.6-4.25-5-7.38-6.82-3.14-1.82-6.46-2.82-9.58-3.03Z"/>
  <path class="cls-1" d="M21.31,87.16c-6.05-3.51-12.6-4.41-17.28-2.83.45,1.49,1.05,2.94,1.78,4.32,4.07-.09,8.51,1.01,12.65,3.41,4.14,2.4,7.3,5.72,9.23,9.3,1.56-.05,3.12-.25,4.64-.59-.95-4.85-4.97-10.1-11.02-13.61Z"/>
  <path class="cls-1" d="M50.14,72.89c-.77-3.13-2.16-6.07-4.09-8.65s-4.36-4.74-7.15-6.36c-2.79-1.62-5.87-2.66-9.06-3.06-3.2-.4-6.44-.15-9.54.73,5.18.63,10.92,2.58,16.56,5.85,5.63,3.27,10.17,7.3,13.29,11.49Z"/>
  <path class="cls-1" d="M42.61,84.36c-2.65-4.4-7.19-8.61-12.78-11.86-5.59-3.25-11.5-5.1-16.63-5.23-4.51-.11-7.9,1.21-9.29,3.6,0,.01-.02.03-.03.04-.13.45-.23.9-.33,1.35,1.94-.77,4.19-1.19,6.69-1.24,5.56-.1,11.79,1.67,17.53,5.01,5.74,3.34,10.38,7.87,13.04,12.75,1.19,2.2,1.94,4.37,2.23,6.43.34-.31.68-.62,1.01-.95,0-.02.01-.03.02-.05,1.39-2.4.85-5.99-1.47-9.86Z"/>
  <path class="cls-1" d="M25.57,79.82c-8.56-4.97-18.02-5.75-22.57-2.28,0,1.09.09,2.17.25,3.25,1.34-.41,2.72-.66,4.11-.76,5.08-.38,10.69,1.03,15.78,3.99,5.09,2.96,9.1,7.13,11.28,11.73.6,1.26,1.07,2.59,1.37,3.95,1.01-.4,2-.86,2.94-1.39.76-5.67-4.6-13.51-13.17-18.48Z"/>
  <path class="cls-1" d="M47.01,77c-2.68-4.4-7.26-8.62-12.89-11.89-5.63-3.27-11.56-5.15-16.71-5.31-3.92-.11-6.96.84-8.54,2.63,6.54-1.11,15.17.75,23.54,5.61,8.37,4.86,14.26,11.43,16.54,17.67.78-2.26.1-5.37-1.94-8.72Z"/>
  <path class="cls-1" d="M71.13,69.11h3.99v13.33c0,1.23-.28,2.3-.83,3.21-.55.91-1.31,1.61-2.29,2.1-.98.49-2.11.74-3.41.74-1.15,0-2.2-.2-3.14-.61-.93-.41-1.67-1.03-2.22-1.87-.55-.84-.82-1.89-.81-3.16h4.02c.01.5.12.94.31,1.3.2.35.47.63.81.82.35.19.76.28,1.23.28.5,0,.92-.11,1.26-.32.35-.22.61-.54.79-.95s.27-.93.27-1.54v-13.33ZM87.59,82.12v-8.23h3.98v14.34h-3.82v-2.6h-.15c-.32.84-.86,1.52-1.61,2.03-.75.51-1.66.77-2.73.77-.96,0-1.8-.22-2.53-.65-.73-.44-1.3-1.05-1.71-1.86-.4-.8-.61-1.76-.62-2.88v-9.13h3.98v8.42c0,.85.23,1.52.68,2.01.45.49,1.05.74,1.8.74.48,0,.93-.11,1.34-.33.42-.22.75-.55,1.01-.99.26-.44.39-.97.38-1.61ZM94.74,93.6v-19.71h3.92v2.41h.18c.17-.39.43-.78.76-1.18.34-.4.77-.74,1.31-1.01.54-.27,1.21-.41,2.02-.41,1.05,0,2.01.27,2.89.82.88.54,1.59,1.36,2.12,2.45.53,1.09.79,2.45.79,4.1s-.26,2.95-.77,4.05c-.51,1.1-1.21,1.93-2.09,2.49-.88.56-1.86.84-2.95.84-.77,0-1.43-.13-1.97-.38-.54-.26-.97-.58-1.32-.96-.34-.39-.6-.79-.78-1.19h-.12v7.67h-3.98ZM98.63,81.05c0,.85.12,1.6.35,2.23.24.63.58,1.13,1.03,1.48.45.35.99.52,1.63.52s1.19-.18,1.64-.53c.45-.36.79-.86,1.02-1.49.24-.64.35-1.38.35-2.21s-.12-1.56-.35-2.18c-.23-.63-.57-1.12-1.02-1.47-.45-.35-1-.53-1.65-.53s-1.19.17-1.64.51c-.44.34-.78.83-1.02,1.46-.24.63-.35,1.37-.35,2.22ZM111.37,88.22v-14.34h3.98v14.34h-3.98ZM113.37,72.04c-.59,0-1.1-.2-1.52-.59-.42-.4-.63-.87-.63-1.43s.21-1.02.63-1.41c.42-.4.93-.6,1.52-.6s1.1.2,1.51.6c.42.39.63.86.63,1.41s-.21,1.03-.63,1.43c-.42.39-.92.59-1.51.59ZM126.16,73.89v2.99h-8.63v-2.99h8.63ZM119.49,70.45h3.98v13.36c0,.37.06.65.17.86.11.2.27.34.47.42.21.08.44.12.71.12.19,0,.37-.02.56-.05.19-.04.33-.07.43-.08l.63,2.96c-.2.06-.48.13-.84.21-.36.09-.8.14-1.32.16-.96.04-1.8-.09-2.52-.38-.72-.29-1.27-.75-1.67-1.36-.4-.62-.59-1.39-.59-2.33v-13.89ZM135.13,88.5c-1.47,0-2.74-.3-3.81-.9-1.06-.6-1.87-1.46-2.45-2.56-.57-1.11-.86-2.42-.86-3.93s.29-2.77.86-3.88c.57-1.11,1.38-1.98,2.42-2.6,1.05-.62,2.27-.93,3.68-.93.95,0,1.83.15,2.64.46.82.3,1.54.75,2.15,1.35.62.6,1.1,1.36,1.44,2.28.34.91.51,1.97.51,3.19v1.09h-12.1v-2.46h8.36c0-.57-.12-1.08-.37-1.52-.25-.44-.59-.79-1.04-1.04-.44-.26-.94-.38-1.52-.38s-1.14.14-1.61.42c-.46.27-.82.64-1.08,1.11-.26.46-.4.97-.4,1.54v2.34c0,.71.13,1.32.39,1.84.27.52.64.91,1.13,1.19.49.28,1.06.42,1.73.42.44,0,.85-.06,1.21-.19.37-.12.68-.31.94-.56.26-.25.46-.55.6-.91l3.68.24c-.19.88-.57,1.65-1.15,2.31-.57.65-1.31,1.16-2.22,1.53-.9.36-1.94.54-3.13.54ZM144.3,88.22v-14.34h3.85v2.5h.15c.26-.89.7-1.56,1.32-2.02.61-.46,1.32-.69,2.13-.69.2,0,.41.01.64.04.23.02.43.06.61.1v3.53c-.19-.06-.45-.11-.78-.15-.33-.04-.63-.07-.91-.07-.59,0-1.11.13-1.57.38-.45.25-.82.6-1.08,1.05-.26.45-.39.96-.39,1.55v8.11h-3.98Z"/>
</svg>