<?xml version="1.0" encoding="UTF-8"?>
<svg id="Layer_1" data-name="Layer 1" xmlns="http://www.w3.org/2000/svg" viewBox="0 0 156 156">
  <defs>
    <style>
      .cls-1 {
        fill-rule: evenodd;
      }

      .cls-1, .cls-2 {
        fill: #1d1d1f;
        stroke-width: 0px;
      }
    </style>
  </defs>
  <path class="cls-2" d="M24.9,64.95l1.02-6.57c-1.01-.16-2.04-.24-3.07-.24h-.02v13.4h.02c.56,0,1.12.07,1.66.22l1.73-6.53c-.44-.12-.89-.21-1.35-.28Z"/>
  <path class="cls-2" d="M19.62,72.41l-3.33-5.75h0c-.39.23-.78.48-1.14.74l-3.98-5.46c.84-.61,1.73-1.16,2.65-1.63l3.03,5.92c.62-.31,1.25-.58,1.91-.79l-2.06-6.32c.98-.32,2-.57,3.03-.73l1.06,6.67c-.45.07-.9.17-1.33.29l1.73,6.41c-.54.15-1.06.36-1.55.65Z"/>
  <path class="cls-2" d="M11.17,72.07l-6.02-3.07c-.47.93-.87,1.9-1.19,2.88l6.43,2.08c.21-.65.47-1.29.78-1.9h0Z"/>
  <path class="cls-2" d="M53.13,71.74h5.26l5.53,12.52h-2.97l-4.33-9.81h-.78v9.81h-2.71v-12.52Z"/>
  <path class="cls-2" d="M108.47,84.26h-2.71v-12.52h2.71v12.52Z"/>
  <path class="cls-2" d="M105.76,84.26l-5.53-12.52h-6.27v12.52h2.71v-9.81h1.79l4.33,9.81h2.97Z"/>
  <path class="cls-2" d="M69.46,71.74l-5.53,12.52h2.97s4.33-9.81,4.33-9.81h.78v9.81h2.71v-12.52h-5.26Z"/>
  <path class="cls-1" d="M81.9,71.74h4.96l5.53,12.52h-2.97l-1.8-4.08h-6.49l-1.8,4.08h-2.97l5.53-12.52ZM83.66,74.45l-1.33,3.02h4.09l-1.33-3.02h-1.43Z"/>
  <path class="cls-2" d="M109.98,74.45v-2.71h15.38v2.71h-6.33v9.81h-2.71v-9.81h-6.33Z"/>
  <path class="cls-2" d="M129.58,71.74h-2.71v12.52h11.81v-2.71h-9.1v-9.81Z"/>
  <path class="cls-2" d="M153,71.74v2.71h-10.1v2.01h8.76v2.71h-8.76v2.37h10.1v2.71h-12.81v-12.52h12.81Z"/>
  <path class="cls-2" d="M34.18,71.43l-5.74,3.34c.28.49.5,1.01.65,1.55l6.41-1.73c.12.44.22.88.29,1.33l6.67-1.06c-.16-1.03-.41-2.04-.73-3.03l-6.32,2.07c-.21-.66-.48-1.29-.8-1.91l5.91-3.03c-.47-.92-1.02-1.81-1.63-2.65l-5.46,3.99c.27.37.52.75.74,1.14h0Z"/>
  <path class="cls-2" d="M31.84,60.3c-.93-.47-1.9-.87-2.88-1.19l-2.08,6.43c.65.21,1.29.47,1.9.78l3.06-6.02Z"/>
  <path class="cls-2" d="M29.44,66.55l-3.37,5.85c.49.28.94.63,1.34,1.03l9.46-9.49c-.73-.73-1.53-1.41-2.37-2.02l-3.9,5.38c-.37-.27-.76-.52-1.15-.75h0Z"/>
  <path class="cls-2" d="M17.26,74.78l-5.85-3.38c.23-.4.48-.78.75-1.15l-5.38-3.9c.61-.84,1.29-1.63,2.02-2.37l9.49,9.46c-.4.4-.75.85-1.03,1.34Z"/>
  <path class="cls-2" d="M10.09,74.6l6.53,1.74h0c-.14.54-.22,1.1-.22,1.66H3c0-1.03.08-2.07.24-3.08l6.57,1.02c.07-.45.16-.9.28-1.35Z"/>
  <path class="cls-2" d="M34.53,83.93l6.02,3.06c.47-.93.87-1.9,1.19-2.88l-6.43-2.08c-.21.65-.47,1.29-.78,1.9h0Z"/>
  <path class="cls-2" d="M26.08,83.59l3.33,5.75c.39-.23.78-.48,1.14-.74l3.98,5.46c-.84.61-1.73,1.16-2.65,1.63l-3.03-5.92c-.62.31-1.25.58-1.91.79l2.06,6.32c-.98.32-2,.57-3.03.73l-1.06-6.67c.45-.07.89-.17,1.33-.29l-1.73-6.41c.54-.15,1.06-.36,1.55-.65Z"/>
  <path class="cls-2" d="M11.52,84.57l5.74-3.34c-.28-.49-.5-1.01-.65-1.55l-6.41,1.73c-.12-.44-.22-.88-.29-1.33l-6.67,1.06c.16,1.03.41,2.04.73,3.03l6.32-2.07c.21.66.48,1.29.8,1.91l-5.91,3.03c.47.92,1.02,1.81,1.63,2.65l5.46-3.99c-.27-.37-.52-.75-.74-1.14h0Z"/>
  <path class="cls-2" d="M13.87,95.7c.93.47,1.9.87,2.88,1.19l2.07-6.43c-.65-.21-1.29-.47-1.9-.78l-3.06,6.02Z"/>
  <path class="cls-2" d="M16.26,89.45l3.37-5.85c-.49-.28-.94-.63-1.34-1.03l-9.46,9.49c.73.73,1.53,1.41,2.37,2.02l3.9-5.38c.37.27.76.52,1.15.75h0Z"/>
  <path class="cls-2" d="M28.44,81.22l5.85,3.38h0c-.23.4-.48.78-.75,1.15l5.38,3.9c-.61.84-1.29,1.63-2.02,2.37l-9.49-9.46c.4-.4.75-.85,1.03-1.34Z"/>
  <path class="cls-2" d="M21.19,84.24l-1.73,6.53c.44.12.89.21,1.35.28l-1.02,6.57c1.01.16,2.04.24,3.07.24h.02v-13.4h-.02c-.56,0-1.12-.07-1.66-.22h0Z"/>
  <path class="cls-2" d="M29.09,79.66c.14-.54.22-1.1.22-1.66h13.4c0,1.03-.08,2.07-.24,3.08l-6.57-1.02c-.07.45-.16.9-.28,1.35l-6.53-1.74Z"/>
</svg>