<?xml version="1.0" encoding="UTF-8"?>
<svg id="Layer_1" data-name="Layer 1" xmlns="http://www.w3.org/2000/svg" viewBox="0 0 156 156">
  <defs>
    <style>
      .cls-1 {
        fill: #1d1d1f;
      }

      .cls-1, .cls-2 {
        stroke-width: 0px;
      }

      .cls-2 {
        fill: #fff;
        fill-rule: evenodd;
      }
    </style>
  </defs>
  <circle class="cls-1" cx="78" cy="78" r="27.05"/>
  <path class="cls-2" d="M85.54,87.18h-15.17c-.58,0-1.06-.1-1.64-.39-.68-.29-1.06-.77-1.26-1.16,0,0,0-.1-.1-.1-.29-.48-.48-1.06-.48-1.74,0-.58.1-1.16.48-1.74h0l9.56-16.42c.19-.39.58-.58,1.06-.58.39,0,.77.19,1.06.58l9.37,16.42h0c.19.39.58.87.58,1.64.1.68-.1,1.26-.39,1.84s-.77,1.06-1.45,1.26c-.58.39-1.26.39-1.64.39ZM79.16,84.86h6.38c.39,0,.58,0,.68-.1.19-.1.29-.19.39-.39.1-.1.1-.29.1-.48,0-.1-.1-.19-.29-.58h0l-7.25-12.56v14.1ZM76.84,84.86v-14.2l-7.34,12.66c-.1.19-.1.39-.1.58s0,.39.1.48.1.19.19.19l.1.1c.19.1.39.1.68.1h6.38v.1Z"/>
</svg>