<svg width="116" height="42" viewBox="0 0 116 42" fill="none" xmlns="http://www.w3.org/2000/svg">
<path d="M55.1613 20.433H55.1586C54.5113 20.1281 53.6859 19.9723 52.7046 19.9723H49.9126C49.1687 19.9723 48.5738 19.7691 48.1487 19.3775L48.128 19.3572C47.7126 18.9277 47.5125 18.444 47.5125 17.879C47.5125 17.3141 47.7195 16.7924 48.128 16.3697C48.5393 15.9402 49.1038 15.7234 49.7994 15.7234H56.6698V14.2588H49.5441C48.7698 14.2588 48.1046 14.4349 47.5097 14.794C46.9149 15.1354 46.465 15.5757 46.1365 16.1367C45.808 16.6989 45.6451 17.2937 45.6451 17.9603C45.6451 18.7421 45.8149 19.4046 46.153 19.933C46.516 20.4709 46.9977 20.8733 47.6229 21.1673C48.273 21.4383 49.0445 21.5765 49.9126 21.5765H52.8496C53.3437 21.5765 53.7839 21.6876 54.1566 21.9085C54.5375 22.1076 54.8204 22.3921 55.0081 22.7539C55.1917 23.0926 55.2773 23.4368 55.2773 23.8405C55.2773 24.2443 55.1765 24.6494 54.9764 25.0179C54.7763 25.3905 54.4685 25.7008 54.0669 25.9447C53.6901 26.1641 53.2291 26.2725 52.7074 26.2725H46.0965V27.7345H53.0221C53.8516 27.7345 54.5513 27.5515 55.1627 27.1762C55.799 26.7969 56.2765 26.324 56.6257 25.7211C56.979 25.1019 57.1474 24.4597 57.1474 23.7552C57.1474 22.9368 56.9707 22.2363 56.6284 21.6808C56.3068 21.1335 55.8252 20.7229 55.1613 20.433Z" fill="#1D1D1F"/>
<path d="M71.5645 14.8779V14.8739C70.4921 14.2425 69.2334 13.9214 67.8256 13.9214C66.4179 13.9214 65.1619 14.2425 64.0827 14.8752C63.0061 15.4876 62.1422 16.3439 61.5128 17.4197C60.8835 18.4724 60.5646 19.6769 60.5646 20.9966C60.5646 22.3162 60.8835 23.5343 61.5128 24.6033C62.1422 25.6587 63.0075 26.515 64.0827 27.1477C65.1095 27.7371 66.3102 28.0474 67.6462 28.0718H67.8256C69.2334 28.0745 70.4893 27.7669 71.5645 27.1518C72.6617 26.5191 73.5257 25.6628 74.1385 24.6114C74.7678 23.5383 75.0866 22.3244 75.0866 21.002C75.0866 19.6796 74.7678 18.444 74.1385 17.3912C73.5257 16.3385 72.6617 15.493 71.5645 14.8779ZM73.1862 21.0034V21.0006C73.1862 22.0426 72.9612 23.0005 72.5154 23.85C72.0696 24.6859 71.4403 25.3593 70.6481 25.8565C69.8586 26.3511 68.8801 26.6112 67.8215 26.6112C66.7629 26.6112 65.8148 26.3579 64.9949 25.8565C64.2027 25.3593 63.5734 24.6832 63.1234 23.8473C62.6804 23.0018 62.4527 22.0439 62.4527 21.002C62.4527 19.9601 62.6777 19.013 63.1234 18.1838C63.5692 17.3276 64.2027 16.6406 64.9991 16.1434C65.8148 15.6421 66.7671 15.3928 67.8215 15.3928C68.8759 15.3928 69.8448 15.6462 70.6481 16.1475C71.4444 16.6488 72.0738 17.3316 72.5196 18.1811C72.9626 19.013 73.1903 19.9601 73.1903 21.0034H73.1862Z" fill="#1D1D1F"/>
<path d="M88.9379 14.6813L88.9351 14.6854H88.9365C87.9883 14.1827 86.8718 13.9253 85.6117 13.9253C84.3516 13.9253 83.2489 14.1827 82.28 14.6935C81.3084 15.184 80.5645 15.8614 80.0069 16.7543C79.4742 17.6404 79.2036 18.6931 79.2036 19.8841V27.7397H81.0724V19.9112C81.0724 18.9912 81.2835 18.1823 81.699 17.5117C82.1282 16.8288 82.6954 16.2977 83.3841 15.9278C84.0825 15.5661 84.8305 15.3831 85.6117 15.3831C86.3929 15.3831 87.134 15.5661 87.8117 15.9278C88.5142 16.2936 89.0814 16.8247 89.4996 17.5144C89.9316 18.1837 90.1497 18.9858 90.1497 19.9057V27.7343H92.0212V19.8786C92.0212 18.6918 91.741 17.635 91.1903 16.7489C90.6507 15.8519 89.9137 15.1786 88.9379 14.6813Z" fill="#1D1D1F"/>
<path d="M98.8295 14.2573H96.9332V27.737H98.8295V14.2573Z" fill="#1D1D1F"/>
<path d="M110.304 15.722H111.723V14.2573H110.391C108.963 14.2573 107.668 14.5622 106.554 15.161C105.44 15.7572 104.547 16.5782 103.897 17.5971C103.254 18.5916 102.929 19.7351 102.929 20.9979C102.929 22.2606 103.254 23.4096 103.897 24.4257C104.545 25.427 105.44 26.2358 106.554 26.8347C107.53 27.355 109.44 27.7384 110.294 27.7384H111.723V26.2738H110.304C109.273 26.2738 108.325 26.0407 107.489 25.5801C106.678 25.1032 106.019 24.4569 105.53 23.6616C105.064 22.8635 104.825 21.9666 104.825 20.9952C104.825 20.0237 105.064 19.1241 105.534 18.326C106.019 17.5348 106.68 16.898 107.493 16.4414C108.326 15.9658 109.269 15.722 110.304 15.722Z" fill="#1D1D1F"/>
<path d="M107.493 16.4464V16.4414L107.491 16.4431L107.493 16.4464Z" fill="#1D1D1F"/>
<path d="M23.8619 25.0748L23.8658 25.0723C23.8658 25.0723 23.8619 25.0748 23.8594 25.0761C23.8607 25.0761 23.8619 25.0761 23.8632 25.0761L23.8619 25.0748Z" fill="#1D1D1F"/>
<path d="M23.8594 25.0762C17.3989 26.9811 12.0563 29.76 8.70941 33.0144L8.56174 33.1594C9.45194 33.9859 10.4277 34.7256 11.4821 35.3543L11.7085 35.082C12.6222 33.9859 13.6021 32.9277 14.622 31.9305C17.3589 29.2533 20.489 26.9364 23.8594 25.0762Z" fill="#1D1D1F"/>
<path d="M24.606 22.2524H3.27847C3.53656 25.6491 4.82149 28.764 6.8379 31.2976L6.93037 31.2069C9.00198 29.2003 11.6988 27.3766 14.9518 25.7873C17.8032 24.3932 21.077 23.1968 24.606 22.2524Z" fill="#1D1D1F"/>
<path d="M16.43 8.29194C22.2115 13.9472 29.4876 17.6867 37.4691 19.1053C36.5071 10.7212 29.2378 4.2002 20.4048 4.2002C18.0724 4.2002 15.8489 4.65679 13.8187 5.48056C14.6427 6.45472 15.5232 7.40314 16.43 8.2933V8.29194Z" fill="#1D1D1F"/>
<path d="M8.70941 8.98403C12.0563 12.2439 17.4016 15.0187 23.8635 16.9277C20.4904 15.0634 17.3575 12.7479 14.6192 10.0693C13.6021 9.07481 12.6235 8.01665 11.7057 6.91784L11.4794 6.64551C10.4249 7.27417 9.44917 8.01258 8.56311 8.83906L8.71079 8.98403H8.70941Z" fill="#1D1D1F"/>
<path d="M16.43 33.7067C15.5191 34.5968 14.6399 35.5452 13.8187 36.5194C15.8462 37.3432 18.0724 37.7998 20.4048 37.7998C29.2378 37.7998 36.5071 31.2773 37.4718 22.8906C29.4918 24.3092 22.2156 28.0487 16.4327 33.7039L16.43 33.7067Z" fill="#1D1D1F"/>
<path d="M14.9477 16.2069V16.2096C11.6974 14.6204 9.00198 12.7953 6.93037 10.7915L6.8379 10.7007C4.82149 13.2343 3.53656 16.3492 3.27847 19.7459H24.6019C21.0742 18.8015 17.8032 17.6052 14.9477 16.2069Z" fill="#1D1D1F"/>
</svg>
