<?xml version="1.0" encoding="UTF-8"?>
<svg id="Layer_1" data-name="Layer 1" xmlns="http://www.w3.org/2000/svg" viewBox="0 0 156 156">
  <defs>
    <style>
      .cls-1 {
        fill: #1d1d1f;
      }

      .cls-1, .cls-2 {
        stroke-width: 0px;
      }

      .cls-2 {
        fill: #fff;
      }
    </style>
  </defs>
  <path class="cls-1" d="M35.05,103.78c14.94,0,27.05-12.11,27.05-27.05s-12.11-27.05-27.05-27.05-27.05,12.11-27.05,27.05,12.11,27.05,27.05,27.05Z"/>
  <path class="cls-2" d="M44.29,64.78h-18.48c-3.4,0-5.54,3.66-3.84,6.63l11.4,19.77c.75,1.29,2.61,1.29,3.36,0l11.4-19.77c1.7-2.97-.44-6.63-3.84-6.63h0ZM33.35,85.24l-2.49-4.81-5.98-10.71c-.28-.51-.1-1.13.38-1.44.16-.1.34-.14.53-.14h7.54l.02,17.1h0ZM45.2,69.71l-5.98,10.71-2.49,4.81v-17.08h7.56c.83-.02,1.31.87.91,1.56Z"/>
  <path class="cls-1" d="M79.34,91.51h5.9v-20.58h8.15v-5.6h-22.22v5.6h8.15s.02,20.58.02,20.58ZM107.57,91.95c7.44,0,13.52-6.09,13.52-13.52s-6.09-13.52-13.52-13.52-13.52,6.09-13.52,13.52,6.04,13.52,13.52,13.52ZM107.57,86.27c-4.29,0-7.62-3.62-7.62-7.84s3.36-7.84,7.62-7.84,7.6,3.62,7.6,7.84-3.36,7.84-7.6,7.84ZM148,91.51v-26.18h-5.9v16.13l-12.72-16.13h-5.05v26.16h5.86v-16.17l12.76,16.17h5.05v.02Z"/>
</svg>