<?xml version="1.0" encoding="UTF-8"?>
<svg id="Layer_1" data-name="Layer 1" xmlns="http://www.w3.org/2000/svg" viewBox="0 0 156 156">
  <defs>
    <style>
      .cls-1 {
        fill: #1d1d1f;
        stroke-width: 0px;
      }
    </style>
  </defs>
  <g id="n30U7C.tif">
    <g>
      <path class="cls-1" d="M20.99,100.61c-.04-.06-.07-.11-.1-.17-5.96-15-11.92-30.01-17.89-45.04,11.42,2.1,22.79,4.19,34.16,6.29.42.4.84.78,1.25,1.17.78.74,1.55,1.49,2.32,2.23.52.49,1.04.99,1.55,1.48.48.46.97.92,1.45,1.38.54.51,1.07,1.02,1.61,1.53.22.21.46.41.7.63-.29.36-.57.7-.85,1.04-.52.64-1.04,1.28-1.56,1.91-.39.48-.79.95-1.18,1.42-.39.47-.78.95-1.17,1.43-.41.49-.81.99-1.22,1.48-.38.47-.77.93-1.15,1.4-.41.49-.81.99-1.21,1.48-.38.47-.77.93-1.15,1.39-.41.49-.81.99-1.21,1.49-.4.49-.79.97-1.19,1.46-.39.48-.78.95-1.18,1.42-.51.62-1.02,1.23-1.53,1.85-.41.49-.81.99-1.21,1.49-.63.77-1.26,1.55-1.89,2.32-.41.49-.82.98-1.23,1.48-.37.45-.73.89-1.1,1.34-.4.49-.81.99-1.21,1.49-.38.47-.77.93-1.15,1.39-.42.51-.84,1.03-1.26,1.54-.41.5-.82,1.01-1.23,1.52-.05.06-.1.11-.16.17ZM7.72,60.71c-.01.07-.03.1-.02.11,4.38,11.02,8.76,22.05,13.15,33.07,0,0,.02.02.03.02.01,0,.02,0,.04,0,.01-.02.04-.03.04-.05.08-.66.16-1.31.23-1.97.06-.51.11-1.02.16-1.53.02-.23.05-.46.08-.69.07-.48.14-.97.2-1.45.06-.51.1-1.02.16-1.53.06-.51.14-1.02.21-1.52.06-.5.11-1,.16-1.5.03-.24.05-.49.08-.73.07-.5.14-.99.2-1.49.04-.3.06-.61.09-.92.02-.22.05-.44.08-.65.04-.33.09-.65.13-.98.03-.28.05-.56.09-.84.06-.48.14-.97.2-1.45.06-.51.11-1.02.16-1.53.03-.23.04-.46.09-.69.06-.24.05-.48.04-.72-5.21-4.32-10.4-8.63-15.62-12.96ZM23.34,94.03c6.04-7.35,12.03-14.65,18.02-21.95.02-.03.04-.06.06-.09,0,0,0-.03,0-.04,0-.01-.02-.02-.03-.03-5.24.95-10.48,1.9-15.7,2.84-.03.05-.05.07-.06.09-.05.36-.1.73-.15,1.09-.04.29-.05.59-.09.88-.06.5-.14.99-.2,1.49-.04.3-.05.61-.09.92-.06.51-.14,1.02-.21,1.53-.06.5-.11,1-.16,1.5-.03.24-.05.49-.08.73-.07.5-.14.99-.2,1.49-.04.3-.05.61-.09.92-.09.7-.19,1.4-.28,2.11-.06.5-.11,1-.16,1.5-.03.24-.05.49-.08.73-.07.48-.14.97-.2,1.45-.06.51-.1,1.02-.16,1.53-.03.28-.09.55-.13.83-.02.14,0,.29,0,.5ZM9.41,59.03c.74.62,1.45,1.21,2.17,1.81.32.27.64.54.96.8.52.43,1.05.86,1.57,1.29.49.41.98.82,1.47,1.23.67.56,1.35,1.11,2.02,1.67.34.28.68.57,1.02.85.52.43,1.05.86,1.57,1.29.49.41.98.82,1.47,1.23.67.56,1.34,1.12,2.02,1.66.26.2.47.46.78.6.18-.15.35-.29.52-.43.5-.42,1-.84,1.5-1.26.54-.45,1.08-.89,1.62-1.34.5-.42,1-.84,1.5-1.26.54-.45,1.08-.89,1.62-1.34.37-.31.74-.61,1.11-.92.5-.42,1-.83,1.5-1.26.05-.04.08-.11.14-.18-8.13-1.5-16.22-3-24.31-4.49-.02,0-.05,0-.07,0-.02,0-.05,0-.07,0-.02,0-.05.01-.1.03ZM41.87,69.44c-.11-.11-.15-.17-.2-.22-.23-.21-.46-.41-.68-.63-.48-.45-.95-.9-1.42-1.35-.76-.73-1.51-1.45-2.27-2.18-.15-.15-.3-.3-.45-.44-.06-.06-.13-.11-.2-.16-.06.04-.12.06-.17.1-2.87,2.38-5.73,4.77-8.6,7.15-.08.07-.17.15-.26.22.05.03.07.05.09.05,4.69-.84,9.39-1.68,14.16-2.54Z"/>
      <g>
        <path class="cls-1" d="M100.3,89.94h-2.84c-.06-.1-.15-.22-.21-.34-.46-.87-.91-1.74-1.36-2.6-.95-1.8-1.9-3.61-2.86-5.41-.11-.21-.24-.42-.35-.62h-5.85v8.98h-2.42v-11.46c.14-.1.33-.05.5-.05,2.73,0,5.46,0,8.19,0,1.22,0,2.3-.41,3.18-1.27.9-.89,1.4-1.97,1.42-3.27.02-.98-.22-1.88-.78-2.68-.8-1.15-1.88-1.84-3.3-2-.77-.09-1.54-.06-2.32-.06-2.81,0-5.62,0-8.43,0-.17,0-.35,0-.46,0-.07.06-.08.07-.09.08,0,.01-.02.03-.02.04,0,.05-.02.09-.02.14,0,6.82,0,13.63-.01,20.45,0,.01,0,.03-.02.07h-2.35c-.07-.37-.1-22.2-.03-23.22.1,0,.21-.02.31-.02,4.36,0,8.72,0,13.08,0,2.44,0,4.31,1.12,5.72,3.05.61.83.98,1.79,1.13,2.83.35,2.32-.22,4.35-1.83,6.09-.73.79-1.59,1.4-2.6,1.79-.06.02-.12.05-.18.08-.04.02-.08.04-.15.08,1.64,3.1,3.29,6.2,4.95,9.33Z"/>
        <path class="cls-1" d="M132.72,65.15c.47.52.95,1.02,1.41,1.54.38.42.74.85,1.11,1.27.76.84,1.52,1.67,2.28,2.5.9.99,1.79,1.99,2.69,2.98.55.61,1.1,1.22,1.65,1.84.98,1.09,1.95,2.19,2.93,3.28.42.47.85.93,1.27,1.39.68.75,1.37,1.5,2.05,2.26.71.79,1.41,1.59,2.12,2.38.07.08.13.18.19.28.03-.02.06-.04.09-.06v-18.05c.39-.08,1.78-.1,2.5-.04v24.74c-.54-.59-1.05-1.13-1.54-1.68-.38-.42-.74-.85-1.11-1.27-.76-.84-1.52-1.67-2.28-2.5-.89-.98-1.77-1.96-2.65-2.95-.86-.96-1.72-1.92-2.59-2.88-.88-.98-1.77-1.96-2.65-2.95-.84-.93-1.68-1.87-2.52-2.81-.68-.76-1.35-1.52-2.02-2.28-.13-.14-.26-.28-.46-.48v18.25h-2.46s-.02-.01-.03-.03c0-.01-.02-.03-.02-.04,0-8.21,0-16.41,0-24.62,0-.03.03-.05.05-.1Z"/>
        <path class="cls-1" d="M104.63,78.27c.03-3.18,1.16-5.93,3.41-8.2,2.25-2.27,5.03-3.42,8.21-3.42,3.18,0,5.97,1.14,8.22,3.4,2.26,2.27,3.43,5.04,3.42,8.26,0,3.2-1.17,5.96-3.42,8.22-2.25,2.26-5.04,3.41-8.23,3.41-3.2,0-5.99-1.17-8.25-3.45-2.23-2.26-3.35-5-3.38-8.21ZM107.15,78.27c-.13,4.87,4,9.15,9.08,9.17,5.16.02,9.18-4.23,9.19-9.12.02-4.9-3.97-9.17-9.13-9.19-5.04-.02-9.25,4.17-9.14,9.14Z"/>
        <path class="cls-1" d="M74.68,66.69v2.43c-.56.03-1.12,0-1.67.01-.56,0-1.13,0-1.69,0h-17.04c-.02-.42,0-.82,0-1.21,0-.39,0-.77,0-1.13.03-.04.04-.06.05-.07.01,0,.03-.01.04-.02.06,0,.13-.01.19-.01,6.7,0,13.39,0,20.13,0Z"/>
        <path class="cls-1" d="M65.52,73.61h2.46v16.22c-.36.07-1.87.09-2.46.02v-16.24Z"/>
        <path class="cls-1" d="M63.43,89.87h-2.35s-.02-.02-.03-.03c0-.01-.03-.02-.03-.04,0-5.25,0-10.5-.01-15.74,0-.14,0-.28,0-.45h2.39c.07.41.1,14.99.03,16.26Z"/>
        <path class="cls-1" d="M137.25,77.34c.86.95,1.67,1.86,2.48,2.76v9.84c-.41.05-.83.02-1.24.02-.4,0-.8,0-1.2,0-.08-.43-.11-11.21-.04-12.62Z"/>
        <path class="cls-1" d="M114.63,78.27c-.1-.71.65-1.67,1.64-1.66.82,0,1.68.68,1.67,1.69,0,.86-.67,1.65-1.7,1.66-.88,0-1.7-.81-1.61-1.69Z"/>
      </g>
    </g>
  </g>
</svg>