<svg width="102" height="50" viewBox="0 0 102 50" fill="none" xmlns="http://www.w3.org/2000/svg"><mask id="a" style="mask-type:luminance" maskUnits="userSpaceOnUse" x="0" y="0" width="102" height="50"><path d="M102 .11H.986v49.766H102z" fill="#fff"/></mask><g mask="url(#a)"><mask id="b" style="mask-type:luminance" maskUnits="userSpaceOnUse" x="25" y="0" width="53" height="17"><path d="M77.499.11h-51.99v16.824h51.99z" fill="#fff"/></mask><g mask="url(#b)" fill-rule="evenodd" clip-rule="evenodd" fill="#171412"><path d="M44.055 6.926c.142.024.24.174.219.334-.022.16-.154.27-.295.247l-7.53-1.31c.81 1.11 2.043 2.026 3.3 2.333l8.728 1.682-11.032 6.315c1.344.626 2.864.505 4.112-.315l.229-.16 4.067-2.855c.113-.078.262-.04.333.087a.29.29 0 0 1-.077.375l-4.22 2.963c1.163.543 2.486.367 3.502-.45l3.213-2.796c.105-.092.257-.07.337.05a.296.296 0 0 1-.043.381l-3.28 2.853c1.142.142 2.648-.217 3.587-.997 1.085-.98 2.44-2.407 3.627-3.059.736-.403 1.554-.608 2.578-.46a5.5 5.5 0 0 0 2.17.38c.487.093.913.412 1.178.874.153-.742-.13-1.603-.778-1.823a.8.8 0 0 0-.297-.666l-.175-.097-4.677-2.594-6.587-3.652a15 15 0 0 0-3.071-1.21c-.64-.174-1.202-.268-1.853-.385L25.508.11c.869 1.25 2.016 1.937 3.383 2.181l11.161 2c.142.025.238.175.215.334s-.155.269-.297.244l-8.86-1.587c.655.983 1.615 1.646 2.686 1.859l.17.029zm28.23-3.661-8.968 1.642c-.138.023-.268-.085-.288-.245-.022-.16.073-.31.211-.333l11.47-2.1c1.128-.257 2.13-1.015 2.788-2.119L61.106 3.205h-.002c-1.314.249-2.191.593-3.385 1.248l-5.345 2.933 4.434 2.432c2.506-.51 4.808-.865 7.316-1.375 1.199-.283 2.252-1.116 2.915-2.316l-7.66 1.402c-.139.024-.268-.084-.288-.244-.022-.16.072-.31.21-.333l9.953-1.822c1.15-.244 2.21-.894 3.033-1.863z"/></g><path d="m102 25.467-2.68 9.248q-.254.874-.71 1.422-.443.547-1.136.797-.677.25-1.64.25h-1.261v-1.61h1.403q.489 0 .836-.124.346-.11.568-.406.22-.282.362-.766l.162-.578h-1.171l-2.886-8.233h1.877l2.262 6.749h.336l1.896-6.75zm-11.792 1.359v4.202q0 .656.348 1.016.362.343 1.008.343h1.42v1.594h-1.277q-1.058 0-1.782-.282a2.08 2.08 0 0 1-1.104-.968q-.363-.688-.363-1.86v-4.045h-1.404v-1.36h1.404v-2.452h1.75v2.453h2.776v1.359zm-4.112-1.453v1.608h-.568q-1.2 0-1.845.641-.631.625-.631 1.797v4.467h-1.845v-8.42h1.467v2.568q.162-1.115.74-1.756.805-.905 2.382-.905zm-6.091 3.983q0-1.094-.457-2.03a3.75 3.75 0 0 0-1.373-1.547q-.914-.594-2.286-.594-1.057 0-1.86.375-.79.36-1.31.984-.52.61-.789 1.39a5 5 0 0 0-.252 1.594v.297q0 .812.252 1.593.27.766.789 1.39.52.61 1.34.985t1.925.375q1.025 0 1.829-.344a3.4 3.4 0 0 0 1.325-.984q.536-.64.71-1.5h-1.72q-.126.516-.693.906-.57.375-1.451.375-.884 0-1.452-.375a2.3 2.3 0 0 1-.835-1.046 3.8 3.8 0 0 1-.252-1.11h6.56zm-6.51-.5q.067-.389.202-.718.268-.657.82-1.032.552-.374 1.372-.374c.547 0 .962.114 1.309.343q.52.33.789.953.162.37.226.828zm-3.146-1.046a3.8 3.8 0 0 0-.805-1.359 3.6 3.6 0 0 0-1.261-.922 3.9 3.9 0 0 0-1.625-.328q-.977 0-1.766.422-.765.408-1.246 1.243v-4.383h-1.845v11.404h1.466V32.14q.059.135.127.263.472.86 1.277 1.312.82.453 1.86.453.931 0 1.688-.343a3.9 3.9 0 0 0 1.293-.938q.552-.61.837-1.39a4.9 4.9 0 0 0 .283-1.687v-.312q0-.907-.284-1.688m-1.893 3.375q-.315.655-.899 1.03t-1.356.376q-.678 0-1.278-.297a2.5 2.5 0 0 1-.977-.86q-.363-.577-.363-1.375v-.67q0-.83.363-1.407.363-.594.962-.906.6-.312 1.293-.313.773 0 1.34.36.584.36.915 1.015.33.64.331 1.516c0 .583-.11 1.083-.331 1.53m-8.537-8.701q-.268-.312-.852-.313c-.389 0-.662.105-.851.313q-.268.297-.268.75c0 .302.089.568.268.765q.284.297.851.297c.38 0 .673-.099.852-.297q.285-.296.284-.765c0-.313-.095-.552-.284-.75m.394 2.984v8.42h-1.845v-7.014h-1.246v-1.406zm-3.23 6.749v1.671H50.38V22.483h1.892v9.733zm-13.373-9.733v4.244a2.94 2.94 0 0 0-1.168-1.104q-.772-.422-1.75-.422a4 4 0 0 0-1.672.344q-.74.328-1.277.922a4.3 4.3 0 0 0-.836 1.39 4.9 4.9 0 0 0-.284 1.687v.297q0 .921.3 1.703.3.78.851 1.375.57.594 1.31.921a4.2 4.2 0 0 0 1.671.328 3.86 3.86 0 0 0 1.767-.406q.804-.422 1.309-1.296.086-.144.157-.3v1.721h1.467V22.483zm.063 7.467q0 .813-.363 1.422a2.34 2.34 0 0 1-.93.906 2.6 2.6 0 0 1-1.278.313q-.758 0-1.356-.344-.6-.36-.947-1.016-.33-.656-.33-1.546c0-.594.11-1.094.33-1.531q.332-.657.915-1.015.6-.375 1.372-.376.695 0 1.278.297t.946.86.363 1.359zM35.4 22.483v11.404h-1.862V23.89h-1.12v-1.406zm-3.282 2.89v1.608h-.568q-1.198 0-1.845.641-.63.625-.63 1.797v4.467H27.23v-8.42h1.466v2.572q.162-1.118.741-1.76.804-.905 2.381-.905zM21.32 34.168q-1.12 0-1.972-.36a4.4 4.4 0 0 1-1.435-.983 4.2 4.2 0 0 1-.883-1.375q-.3-.78-.3-1.61v-.312q0-.828.3-1.61.315-.78.899-1.39.6-.624 1.45-.984.853-.36 1.94-.359 1.089 0 1.924.36.852.359 1.451.983.6.61.899 1.39.315.782.315 1.61v.313q0 .827-.3 1.609-.3.765-.882 1.375-.584.609-1.435.984-.852.36-1.971.36m0-1.593q.867 0 1.482-.375.615-.39.93-1.047.332-.657.332-1.468c0-.541-.11-1.047-.331-1.485a2.5 2.5 0 0 0-.947-1.03q-.614-.391-1.466-.391-.853 0-1.467.39-.615.375-.947 1.031-.33.656-.33 1.485c0 .552.104 1.03.314 1.468q.332.656.947 1.047.615.374 1.483.374m-4.595-10.092-2.713 11.404h-3.106L8.9 25.597l-1.826 8.29H3.999L.986 22.483h1.956l2.445 9.795h.472l1.956-9.342h2.192l2.229 9.342h.456l2.172-9.795zM82.359 38.19v11.405h-1.86v-9.998h-1.121V38.19zm-3.849 4.25q-.41-.72-1.261-1.047-.853-.329-2.145-.328a25 25 0 0 0-1.735.062q-.41.015-.757.047v1.578q.394-.031.899-.047a35 35 0 0 1 2.034-.062q.804 0 1.215.406.41.405.41 1.187v.156h-1.94q-1.12 0-1.924.297-.805.297-1.246.89-.426.594-.426 1.5c0 .604.126 1.068.379 1.484q.379.61 1.072.938.694.312 1.625.312c.62 0 1.103-.104 1.514-.312a2.37 2.37 0 0 0 .977-.922q.163-.273.268-.603v1.618h1.467V44.33q0-1.188-.426-1.89m-2.397 5.826a2.5 2.5 0 0 1-.93.172q-.837 0-1.278-.375-.441-.39-.442-1.03 0-.641.442-1.032.441-.406 1.278-.406h1.986v.875q-.03.765-.33 1.187a1.63 1.63 0 0 1-.726.61m-5.967-10.076q-.268-.312-.852-.313c-.388 0-.662.105-.852.313a1.08 1.08 0 0 0-.268.75c0 .302.09.568.268.765q.285.297.852.297c.38 0 .673-.099.852-.297q.284-.296.284-.765c0-.313-.095-.552-.284-.75m.394 2.983v8.421h-1.845V42.58h-1.246v-1.406zm-7.371 8.702q-1.088 0-1.908-.36a3.9 3.9 0 0 1-1.34-1 4.6 4.6 0 0 1-.79-1.405 5.1 5.1 0 0 1-.252-1.578v-.28q0-.83.269-1.594.267-.781.804-1.406a3.8 3.8 0 0 1 1.325-.984q.804-.375 1.876-.375c.715 0 1.372.135 1.94.406q.867.406 1.388 1.156.52.735.583 1.718h-1.782a1.87 1.87 0 0 0-.646-1.187q-.537-.484-1.483-.484-.819 0-1.356.375t-.804 1.03q-.268.642-.268 1.485c0 .563.084 1.031.252 1.468q.268.657.804 1.032.552.374 1.388.374.647 0 1.104-.218.473-.234.757-.61.284-.39.331-.89h1.798q-.047 1.015-.584 1.765-.535.735-1.419 1.156-.883.406-1.987.406m-5.465-5.092v4.811h-1.846v-5.061q0-.876-.504-1.406-.505-.547-1.388-.547c-.589 0-1.083.187-1.45.562q-.553.548-.553 1.468v4.984h-1.845v-8.42h1.467v2.006a4 4 0 0 1 .158-.506q.346-.86 1.04-1.297.694-.453 1.72-.453h.078q1.578 0 2.35.984.773.984.773 2.875m-9.479-2.344q-.41-.72-1.261-1.047-.853-.329-2.146-.328a25 25 0 0 0-1.734.062q-.41.015-.757.047v1.578q.394-.031.899-.047a35 35 0 0 1 2.034-.062q.804 0 1.215.406.41.405.41 1.187v.156h-1.94q-1.12 0-1.924.297-.805.297-1.246.89-.426.594-.426 1.5c0 .604.126 1.068.378 1.484q.379.61 1.073.938.694.312 1.624.312c.62 0 1.104-.104 1.514-.312a2.37 2.37 0 0 0 .978-.922q.163-.273.268-.603v1.618h1.467V44.33q0-1.188-.426-1.89m-2.397 5.826a2.5 2.5 0 0 1-.93.172q-.837 0-1.278-.375-.441-.39-.441-1.03 0-.641.441-1.032.441-.406 1.278-.406h1.986v.875q-.03.765-.33 1.187a1.63 1.63 0 0 1-.726.61m-5.544-3.483v4.811h-1.845v-5.061q0-.876-.505-1.406-.505-.547-1.388-.547c-.588 0-1.083.187-1.45.562q-.553.548-.553 1.468v4.984h-1.845v-8.42h1.467v2.005q.066-.267.157-.505.348-.86 1.041-1.297.694-.453 1.72-.453h.078q1.577 0 2.35.984t.773 2.875m-9.469-6.593q-.267-.312-.851-.313c-.39 0-.662.105-.852.313q-.268.297-.268.75c0 .302.09.568.268.765q.285.297.852.297c.378 0 .673-.099.851-.297q.284-.296.284-.765c0-.313-.094-.552-.284-.75m.395 2.983v8.421h-1.845V42.58h-1.246v-1.406zm-8.575-1.359v3.234h4.463v1.625h-4.463v4.92h-1.893V38.19h6.593v1.625z" fill="#171412"/></g></svg>