<?xml version="1.0" encoding="UTF-8"?>
<svg id="Layer_1" data-name="Layer 1" xmlns="http://www.w3.org/2000/svg" viewBox="0 0 156 156">
  <defs>
    <style>
      .cls-1 {
        fill-rule: evenodd;
      }

      .cls-1, .cls-2 {
        fill: #1d1d1f;
        stroke-width: 0px;
      }
    </style>
  </defs>
  <path class="cls-1" d="M24.59,54.05l11.85-6.84h23.69l11.85,6.84v4.56l-11.85-6.84h-23.69l-11.84,6.84v31.94l23.69,13.69,23.69-13.69v-31.94l3.95,2.28v31.94l-27.64,15.97-27.64-15.97v-31.94l3.95-2.28v-4.56ZM40.39,63.17l-3.95-2.28v13.69l11.85,6.84,11.85-6.84v-13.69l-3.95,2.28v9.13l-7.9,4.56-7.9-4.56v-9.13ZM56.18,81.43v4.56l-11.85,6.84v-4.56l11.85-6.84Z"/>
  <g>
    <g>
      <path class="cls-2" d="M132.77,59.44h-5.17v1.48h5.17l1.29.74v5.9l-1.29.74h-5.17v1.48h5.17l2.59-1.48v-7.38l-2.59-1.48Z"/>
      <path class="cls-2" d="M128.89,61.65l-1.29-.74v7.38l1.29-.74v-5.9Z"/>
      <path class="cls-2" d="M118.54,60.17l-1.29-.74v8.86l2.59,1.48h5.17v-1.48h-5.17l-1.29-.74v-7.38Z"/>
      <path class="cls-2" d="M109.49,59.44l-2.59,1.48v2.95l1.29-.74v-1.48l1.29-.74h2.59l1.29.74,1.29-.74-2.59-1.48h-2.59Z"/>
      <path class="cls-2" d="M112.08,63.87h-5.17v1.48h5.17l1.29.74v-2.95l-1.29.74Z"/>
      <path class="cls-2" d="M108.2,66.08l-1.29-.74v2.95l2.59,1.48h2.59l2.59-1.48-1.29-.74-1.29.74h-2.59l-1.29-.74v-1.48Z"/>
      <path class="cls-2" d="M97.85,61.65v-1.48l1.29-.74h2.59l1.29.74v1.48l-1.29-.74h-2.59l-1.29.74Z"/>
      <path class="cls-2" d="M100.44,61.65l-.65-.37v6.64l.65-.37.65.37v-6.64l-.65.37Z"/>
      <path class="cls-2" d="M97.85,69.03v-1.48l1.29.74h2.59l1.29-.74v1.48l-1.29.74h-2.59l-1.29-.74Z"/>
      <path class="cls-2" d="M88.8,68.29l3.88-2.21v1.48l-3.88,2.21v-1.48Z"/>
      <path class="cls-2" d="M86.21,63.87v-4.43l1.29.74v2.95l2.59,1.48,2.59-1.48v-2.95l1.29-.74v4.43l-3.88,2.21-3.88-2.21Z"/>
    </g>
    <g>
      <path class="cls-2" d="M132.77,72.83h-5.17v1.48h5.17l1.29.74v5.9l-1.29.74h-5.17v1.48h5.17l2.59-1.48v-7.38l-2.59-1.48Z"/>
      <path class="cls-2" d="M128.89,75.04l-1.29-.74v7.38l1.29-.74v-5.9Z"/>
      <path class="cls-2" d="M118.54,73.57l-1.29-.74v8.86l2.59,1.48h5.17v-1.48h-5.17l-1.29-.74v-7.38Z"/>
      <path class="cls-2" d="M108.2,75.04v-1.48l1.29-.74h2.59l1.29.74v1.48l-1.29-.74h-2.59l-1.29.74Z"/>
      <path class="cls-2" d="M110.78,75.04l-.65-.37v6.64l.65-.37.65.37v-6.64l-.65.37Z"/>
      <path class="cls-2" d="M108.2,82.42v-1.48l1.29.74h2.59l1.29-.74v1.48l-1.29.74h-2.59l-1.29-.74Z"/>
      <path class="cls-2" d="M97.85,73.57l-1.29-.74v8.86l2.59,1.48h2.59l2.59-1.48v-8.86l-1.29.74v7.38l-1.29.74h-2.59l-1.29-.74v-7.38Z"/>
      <path class="cls-2" d="M91.38,72.83h-2.59l-2.59,1.48v7.38l2.59,1.48h2.59l2.59-1.48v-2.95l-2.59-1.48-2.59,1.48,1.29.74,1.29-.74,1.29.74v1.48l-1.29.74h-2.59l-1.29-.74v-5.9l1.29-.74h2.59l1.29.74,1.29-.74-2.59-1.48Z"/>
    </g>
    <g>
      <path class="cls-2" d="M132.77,86.22h-2.59l-2.59,1.48v2.95l2.59,1.48h2.59l1.29.74v1.48l-1.29.74h-2.59l-1.29-.74-1.29.74,2.59,1.48h2.59l2.59-1.48v-2.95l-2.59-1.48h-2.59l-1.29-.74v-1.48l1.29-.74h2.59l1.29.74,1.29-.74-2.59-1.48Z"/>
      <path class="cls-2" d="M119.83,86.22l-2.59,1.48v2.95l1.29-.74v-1.48l1.29-.74h2.59l1.29.74,1.29-.74-2.59-1.48h-2.59Z"/>
      <path class="cls-2" d="M122.42,90.64h-5.17v1.48h5.17l1.29.74v-2.95l-1.29.74Z"/>
      <path class="cls-2" d="M118.54,92.86l-1.29-.74v2.95l2.59,1.48h2.59l2.59-1.48-1.29-.74-1.29.74h-2.59l-1.29-.74v-1.48Z"/>
      <path class="cls-2" d="M109.49,86.22l-2.59,1.48v8.87l1.29-.75v-7.38l1.29-.74.65.37v4.43l.65.37.65-.37v-4.41l.65-.38,1.29.74v7.38s1.3.75,1.3.75v-8.87l-2.59-1.48-1.29.74-1.29-.74Z"/>
      <path class="cls-2" d="M112.09,95.07l-1.31-.74-1.31.74,1.31.74,1.31-.74Z"/>
      <path class="cls-2" d="M99.14,86.22l-2.59,1.48v2.95l1.29-.74v-1.48l1.29-.74h2.59l1.29.74v1.48l1.29.74v-2.95l-2.59-1.48h-2.59Z"/>
      <path class="cls-2" d="M104.32,90.64h-7.76v1.48h7.76v-1.48Z"/>
      <path class="cls-2" d="M97.85,92.86l-1.29-.74v4.43l1.29-.74v-2.95Z"/>
      <path class="cls-2" d="M103.02,92.86l1.29-.74v4.43l-1.29-.74v-2.95Z"/>
      <path class="cls-2" d="M91.39,86.22h-2.59l-2.59,1.48v7.38l2.59,1.48h2.59l2.59-1.48v-2.95l-2.59-1.48-2.59,1.48,1.29.74,1.29-.74,1.29.74v1.48l-1.29.74h-2.59l-1.29-.74v-5.9l1.29-.74h2.59l1.29.74,1.29-.74-2.59-1.48Z"/>
    </g>
  </g>
</svg>